# xmcd
#
# Track frame offsets:
# 150
# 26120
# 46497
# 64680
# 83510
# 107280
# 131152
# 157350
# 174382
# 193835
# 220577
# 236195
# 258012
# 280377
# 306292
#
# Disc length: 4228 seconds
#
#
# Revision: 0
# Processed by: cddbd v1.5PL3 Copyright (c) Steve Scherf et al.
# Submitted via: FreeRIP 2.53 
#
DISCID=d510820f
DTITLE=Groundhogs - The Best Of The Groundhogs
DYEAR=1997
DGENRE=Blues
TTITLE0=Cherry Red
TTITLE1=Split - Part 1
TTITLE2=Mistreated
TTITLE3=Still A Fool
TTITLE4=Split - Part 2
TTITLE5=Times
TTITLE6=Groundhog
TTITLE7=BOD
TTITLE8=Strange Town
TTITLE9=You Had A Lesson
TTITLE10=Rich Man, Poor Man
TTITLE11=Earth Is Not Room Enough
TTITLE12=Eccentric Man
TTITLE13=Split - Part 4
TTITLE14=Amazing Grace
EXTD=
EXTT0=
EXTT1=
EXTT2=
EXTT3=
EXTT4=
EXTT5=
EXTT6=
EXTT7=
EXTT8=
EXTT9=
EXTT10=
EXTT11=
EXTT12=
EXTT13=
EXTT14=
PLAYORDER=
